<?xml version="1.0" encoding="UTF-8"?>
<svg xmlns="http://www.w3.org/2000/svg" xmlns:xlink="http://www.w3.org/1999/xlink" width="375pt" height="374.999991pt" viewBox="0 0 375 374.999991" version="1.2">
<defs>
<clipPath id="clip1">
  <path d="M 82.597656 74.246094 L 292.597656 74.246094 L 292.597656 337.496094 L 82.597656 337.496094 Z M 82.597656 74.246094 "/>
</clipPath>
</defs>
<g id="surface1">
<path style=" stroke:none;fill-rule:nonzero;fill:rgb(0%,0%,0%);fill-opacity:1;" d="M 187.5 6.351562 C 184.535156 6.351562 181.574219 6.421875 178.613281 6.570312 C 175.648438 6.714844 172.695312 6.933594 169.746094 7.222656 C 166.792969 7.511719 163.851562 7.875 160.917969 8.3125 C 157.988281 8.746094 155.066406 9.253906 152.160156 9.832031 C 149.25 10.410156 146.359375 11.058594 143.484375 11.78125 C 140.609375 12.5 137.753906 13.289062 134.914062 14.152344 C 132.078125 15.011719 129.265625 15.941406 126.472656 16.941406 C 123.679688 17.9375 120.917969 19.003906 118.175781 20.140625 C 115.4375 21.273438 112.730469 22.476562 110.046875 23.742188 C 107.367188 25.011719 104.722656 26.34375 102.105469 27.742188 C 99.492188 29.136719 96.914062 30.597656 94.371094 32.121094 C 91.828125 33.648438 89.324219 35.234375 86.859375 36.878906 C 84.394531 38.527344 81.96875 40.234375 79.589844 42 C 77.207031 43.765625 74.871094 45.589844 72.578125 47.46875 C 70.289062 49.351562 68.042969 51.285156 65.847656 53.277344 C 63.652344 55.269531 61.503906 57.3125 59.40625 59.40625 C 57.3125 61.503906 55.269531 63.652344 53.277344 65.847656 C 51.285156 68.042969 49.351562 70.289062 47.46875 72.578125 C 45.589844 74.871094 43.765625 77.207031 42 79.589844 C 40.234375 81.96875 38.527344 84.394531 36.878906 86.859375 C 35.234375 89.324219 33.648438 91.828125 32.121094 94.371094 C 30.597656 96.914062 29.136719 99.492188 27.742188 102.105469 C 26.34375 104.722656 25.011719 107.367188 23.742188 110.046875 C 22.476562 112.730469 21.273438 115.4375 20.140625 118.175781 C 19.003906 120.917969 17.9375 123.679688 16.941406 126.472656 C 15.941406 129.265625 15.011719 132.078125 14.152344 134.914062 C 13.289062 137.753906 12.5 140.609375 11.78125 143.484375 C 11.058594 146.359375 10.410156 149.25 9.832031 152.160156 C 9.253906 155.066406 8.746094 157.988281 8.3125 160.917969 C 7.875 163.851562 7.511719 166.792969 7.222656 169.746094 C 6.933594 172.695312 6.714844 175.648438 6.570312 178.613281 C 6.421875 181.574219 6.351562 184.535156 6.351562 187.5 C 6.351562 190.464844 6.421875 193.425781 6.570312 196.386719 C 6.714844 199.351562 6.933594 202.304688 7.222656 205.253906 C 7.511719 208.207031 7.875 211.148438 8.3125 214.082031 C 8.746094 217.011719 9.253906 219.933594 9.832031 222.839844 C 10.410156 225.75 11.058594 228.640625 11.78125 231.515625 C 12.5 234.390625 13.289062 237.246094 14.152344 240.085938 C 15.011719 242.921875 15.941406 245.734375 16.941406 248.527344 C 17.9375 251.320312 19.003906 254.082031 20.140625 256.824219 C 21.273438 259.5625 22.476562 262.269531 23.742188 264.953125 C 25.011719 267.632812 26.34375 270.277344 27.742188 272.894531 C 29.136719 275.507812 30.597656 278.085938 32.121094 280.628906 C 33.648438 283.171875 35.234375 285.675781 36.878906 288.140625 C 38.527344 290.605469 40.234375 293.03125 42 295.410156 C 43.765625 297.792969 45.589844 300.128906 47.46875 302.421875 C 49.351562 304.710938 51.285156 306.957031 53.277344 309.152344 C 55.269531 311.347656 57.3125 313.496094 59.40625 315.59375 C 61.503906 317.6875 63.652344 319.730469 65.847656 321.722656 C 68.042969 323.714844 70.289062 325.648438 72.578125 327.53125 C 74.871094 329.410156 77.207031 331.234375 79.589844 333 C 81.96875 334.765625 84.394531 336.472656 86.859375 338.121094 C 89.324219 339.765625 91.828125 341.351562 94.371094 342.878906 C 96.914062 344.402344 99.492188 345.863281 102.105469 347.257812 C 104.722656 348.65625 107.367188 349.988281 110.046875 351.257812 C 112.730469 352.523438 115.4375 353.726562 118.175781 354.859375 C 120.917969 355.996094 123.679688 357.0625 126.472656 358.058594 C 129.265625 359.058594 132.078125 359.988281 134.914062 360.847656 C 137.753906 361.710938 140.609375 362.5 143.484375 363.21875 C 146.359375 363.941406 149.25 364.589844 152.160156 365.167969 C 155.066406 365.746094 157.988281 366.253906 160.917969 366.6875 C 163.851562 367.125 166.792969 367.488281 169.746094 367.777344 C 172.695312 368.066406 175.648438 368.285156 178.613281 368.429688 C 181.574219 368.578125 184.535156 368.648438 187.5 368.648438 C 190.464844 368.648438 193.425781 368.578125 196.386719 368.429688 C 199.351562 368.285156 202.304688 368.066406 205.253906 367.777344 C 208.207031 367.488281 211.148438 367.125 214.082031 366.6875 C 217.011719 366.253906 219.933594 365.746094 222.839844 365.167969 C 225.75 364.589844 228.640625 363.941406 231.515625 363.21875 C 234.390625 362.5 237.246094 361.710938 240.085938 360.847656 C 242.921875 359.988281 245.734375 359.058594 248.527344 358.058594 C 251.320312 357.0625 254.082031 355.996094 256.824219 354.859375 C 259.5625 353.726562 262.269531 352.523438 264.953125 351.257812 C 267.632812 349.988281 270.277344 348.65625 272.894531 347.257812 C 275.507812 345.863281 278.085938 344.402344 280.628906 342.878906 C 283.171875 341.351562 285.675781 339.765625 288.140625 338.121094 C 290.605469 336.472656 293.03125 334.765625 295.410156 333 C 297.792969 331.234375 300.128906 329.410156 302.421875 327.53125 C 304.710938 325.648438 306.957031 323.714844 309.152344 321.722656 C 311.347656 319.730469 313.496094 317.6875 315.59375 315.59375 C 317.6875 313.496094 319.730469 311.347656 321.722656 309.152344 C 323.714844 306.957031 325.648438 304.710938 327.53125 302.421875 C 329.410156 300.128906 331.234375 297.792969 333 295.410156 C 334.765625 293.03125 336.472656 290.605469 338.121094 288.140625 C 339.765625 285.675781 341.351562 283.171875 342.878906 280.628906 C 344.402344 278.085938 345.863281 275.507812 347.257812 272.894531 C 348.65625 270.277344 349.988281 267.632812 351.257812 264.953125 C 352.523438 262.269531 353.726562 259.5625 354.859375 256.824219 C 355.996094 254.082031 357.0625 251.320312 358.058594 248.527344 C 359.058594 245.734375 359.988281 242.921875 360.847656 240.085938 C 361.710938 237.246094 362.5 234.390625 363.21875 231.515625 C 363.941406 228.640625 364.589844 225.75 365.167969 222.839844 C 365.746094 219.933594 366.253906 217.011719 366.6875 214.082031 C 367.125 211.148438 367.488281 208.207031 367.777344 205.253906 C 368.066406 202.304688 368.285156 199.351562 368.429688 196.386719 C 368.578125 193.425781 368.648438 190.464844 368.648438 187.5 C 368.648438 184.535156 368.578125 181.574219 368.429688 178.613281 C 368.285156 175.648438 368.066406 172.695312 367.777344 169.746094 C 367.488281 166.792969 367.125 163.851562 366.6875 160.917969 C 366.253906 157.988281 365.746094 155.066406 365.167969 152.160156 C 364.589844 149.25 363.941406 146.359375 363.21875 143.484375 C 362.5 140.609375 361.710938 137.753906 360.847656 134.914062 C 359.988281 132.078125 359.058594 129.265625 358.058594 126.472656 C 357.0625 123.679688 355.996094 120.917969 354.859375 118.175781 C 353.726562 115.4375 352.523438 112.730469 351.257812 110.046875 C 349.988281 107.367188 348.65625 104.722656 347.257812 102.105469 C 345.863281 99.492188 344.402344 96.914062 342.878906 94.371094 C 341.351562 91.828125 339.765625 89.324219 338.121094 86.859375 C 336.472656 84.394531 334.765625 81.96875 333 79.589844 C 331.234375 77.207031 329.410156 74.871094 327.53125 72.578125 C 325.648438 70.289062 323.714844 68.042969 321.722656 65.847656 C 319.730469 63.652344 317.6875 61.503906 315.59375 59.40625 C 313.496094 57.3125 311.347656 55.269531 309.152344 53.277344 C 306.957031 51.285156 304.710938 49.351562 302.421875 47.46875 C 300.128906 45.589844 297.792969 43.765625 295.410156 42 C 293.03125 40.234375 290.605469 38.527344 288.140625 36.878906 C 285.675781 35.234375 283.171875 33.648438 280.628906 32.121094 C 278.085938 30.597656 275.507812 29.136719 272.894531 27.742188 C 270.277344 26.34375 267.632812 25.011719 264.953125 23.742188 C 262.269531 22.476562 259.5625 21.273438 256.824219 20.140625 C 254.082031 19.003906 251.320312 17.9375 248.527344 16.941406 C 245.734375 15.941406 242.921875 15.011719 240.085938 14.152344 C 237.246094 13.289062 234.390625 12.5 231.515625 11.78125 C 228.640625 11.058594 225.75 10.410156 222.839844 9.832031 C 219.933594 9.253906 217.011719 8.746094 214.082031 8.3125 C 211.148438 7.875 208.207031 7.511719 205.253906 7.222656 C 202.304688 6.933594 199.351562 6.714844 196.386719 6.570312 C 193.425781 6.421875 190.464844 6.351562 187.5 6.351562 Z M 187.5 6.351562 "/>
<g clip-path="url(#clip1)" clip-rule="nonzero">
<path style=" stroke:none;fill-rule:nonzero;fill:rgb(14.509583%,46.269226%,47.44873%);fill-opacity:1;" d="M 208.578125 337.496094 L 166.617188 337.496094 C 163.304688 337.496094 160.625 334.816406 160.625 331.511719 L 160.625 116.125 L 88.699219 116.125 C 85.382812 116.125 82.703125 113.445312 82.703125 110.144531 L 82.703125 80.226562 C 82.703125 76.925781 85.382812 74.246094 88.699219 74.246094 L 286.5 74.246094 C 289.8125 74.246094 292.492188 76.925781 292.492188 80.226562 L 292.492188 110.144531 C 292.492188 113.445312 289.8125 116.125 286.5 116.125 L 214.570312 116.125 L 214.570312 331.511719 C 214.570312 334.816406 211.890625 337.496094 208.578125 337.496094 Z M 208.578125 337.496094 "/>
</g>
</g>
</svg>
